<?xml version="1.0" encoding="UTF-8" standalone="no"?>
<!DOCTYPE svg PUBLIC "-//W3C//DTD SVG 1.1//EN" "http://www.w3.org/Graphics/SVG/1.1/DTD/svg11.dtd">
<svg version="1.1" xmlns="http://www.w3.org/2000/svg" xmlns:xlink="http://www.w3.org/1999/xlink" preserveAspectRatio="xMidYMid meet" viewBox="0 0 640 640" width="640" height="640"><defs><path d="M326.53 0.95L330.77 2.1L335.63 3.68L341.05 5.66L347 8.01L353.44 10.73L360.34 13.79L367.66 17.16L375.35 20.82L383.39 24.76L391.74 28.94L400.35 33.36L409.2 37.98L418.23 42.79L427.42 47.76L436.73 52.87L446.12 58.11L455.56 63.44L465 68.86L474.4 74.32L483.74 79.82L492.97 85.34L502.05 90.84L510.95 96.31L519.64 101.74L528.06 107.08L536.19 112.33L543.99 117.47L551.42 122.46L558.44 127.3L565.02 131.95L571.11 136.4L576.69 140.62L581.7 144.59L586.13 148.3L589.92 151.71L593.04 154.82L595.45 157.59L597.12 160L598.38 162.65L599.57 166.13L600.7 170.39L601.76 175.38L602.76 181.06L603.7 187.4L604.57 194.34L605.38 201.84L606.12 209.86L606.8 218.36L607.41 227.29L607.96 236.61L608.44 246.28L608.86 256.25L609.21 266.47L609.5 276.92L609.73 287.54L609.89 298.29L609.99 309.12L610.02 320L609.99 330.88L609.89 341.71L609.73 352.46L609.5 363.08L609.21 373.53L608.86 383.75L608.44 393.72L607.96 403.39L607.41 412.71L606.8 421.64L606.12 430.14L605.38 438.16L604.57 445.66L603.7 452.6L602.76 458.94L601.76 464.62L600.7 469.61L599.57 473.87L598.38 477.35L597.12 480L595.45 482.41L593.03 485.18L589.9 488.29L586.11 491.7L581.68 495.41L576.66 499.38L571.09 503.6L564.99 508.05L558.41 512.7L551.39 517.54L543.96 522.53L536.16 527.67L528.03 532.92L519.61 538.26L510.93 543.69L502.03 549.16L492.94 554.66L483.72 560.18L474.38 565.68L464.98 571.15L455.54 576.56L446.11 581.89L436.73 587.13L427.42 592.24L418.23 597.21L409.2 602.02L400.35 606.64L391.74 611.06L383.4 615.24L375.36 619.18L367.66 622.84L360.35 626.21L353.45 629.27L347.01 631.99L341.06 634.34L335.63 636.32L330.78 637.9L326.53 639.05L322.93 639.76L320 640L317.07 639.76L313.47 639.05L309.22 637.9L304.36 636.32L298.94 634.34L292.99 631.99L286.54 629.27L279.64 626.21L272.33 622.84L264.63 619.18L256.59 615.24L248.24 611.06L239.63 606.64L230.78 602.02L221.75 597.21L212.55 592.24L203.24 587.13L193.85 581.89L184.42 576.56L174.98 571.15L165.57 565.68L156.24 560.18L147.01 554.66L137.92 549.16L129.02 543.69L120.33 538.26L111.91 532.92L103.77 527.67L95.97 522.53L88.54 517.54L81.52 512.7L74.94 508.05L68.84 503.6L63.26 499.38L58.24 495.41L53.81 491.7L50.02 488.29L46.89 485.18L44.47 482.41L42.8 480L41.55 477.35L40.37 473.87L39.25 469.61L38.19 464.62L37.2 458.94L36.27 452.6L35.4 445.66L34.6 438.16L33.87 430.14L33.19 421.64L32.58 412.71L32.04 403.39L31.56 393.72L31.14 383.75L30.79 373.53L30.5 363.08L30.28 352.46L30.12 341.71L30.02 330.88L29.99 320L30.02 309.12L30.12 298.29L30.28 287.54L30.5 276.92L30.79 266.47L31.14 256.25L31.56 246.28L32.04 236.61L32.58 227.29L33.19 218.36L33.87 209.86L34.6 201.84L35.4 194.34L36.27 187.4L37.2 181.06L38.19 175.38L39.25 170.39L40.37 166.13L41.55 162.65L42.8 160L44.47 157.59L46.89 154.82L50.02 151.71L53.82 148.3L58.24 144.59L63.27 140.62L68.84 136.4L74.94 131.95L81.52 127.3L88.55 122.46L95.98 117.47L103.78 112.33L111.91 107.08L120.34 101.74L129.03 96.31L137.93 90.84L147.02 85.34L156.25 79.82L165.59 74.32L174.99 68.86L184.43 63.44L193.87 58.11L203.26 52.87L212.57 47.76L221.76 42.79L230.8 37.98L239.64 33.36L248.26 28.94L256.6 24.76L264.64 20.82L272.34 17.16L279.66 13.79L286.56 10.73L293 8.01L298.95 5.66L304.37 3.68L309.23 2.1L313.47 0.95L317.08 0.24L320 0L322.92 0.24L326.53 0.95ZM239.59 128.29L239.42 128.3L239.25 128.32L239.09 128.33L238.93 128.36L238.77 128.39L238.6 128.42L238.45 128.45L238.29 128.49L238.13 128.54L237.97 128.58L237.82 128.64L237.67 128.69L237.52 128.75L237.37 128.81L237.22 128.87L237.07 128.94L236.93 129.02L236.78 129.09L236.64 129.17L236.51 129.25L236.37 129.33L236.23 129.42L236.1 129.51L235.97 129.6L235.84 129.7L235.72 129.8L235.59 129.9L235.47 130L235.35 130.11L235.24 130.22L235.12 130.33L235.01 130.44L234.9 130.55L234.8 130.67L234.69 130.79L234.59 130.91L234.49 131.03L234.4 131.16L189.6 171.44L189.46 171.53L189.32 171.63L189.18 171.73L189.04 171.83L188.91 171.93L188.78 172.04L188.65 172.15L188.53 172.27L188.41 172.39L188.29 172.51L188.17 172.63L188.06 172.76L187.95 172.89L187.85 173.03L187.74 173.16L187.64 173.3L187.55 173.44L187.46 173.58L187.37 173.73L187.28 173.88L187.2 174.03L187.12 174.18L187.04 174.34L186.97 174.5L186.91 174.66L186.84 174.82L186.78 174.99L186.73 175.15L186.68 175.32L186.63 175.49L186.59 175.66L186.55 175.84L186.51 176.01L186.48 176.19L186.46 176.37L186.44 176.55L186.42 176.73L186.41 176.91L186.4 177.09L186.4 177.28L186.41 177.56L186.42 177.84L186.45 178.12L186.49 178.4L186.54 178.67L186.6 178.93L186.67 179.2L186.75 179.45L186.84 179.71L186.93 179.96L187.04 180.2L187.16 180.44L187.28 180.68L187.42 180.9L187.56 181.13L187.71 181.34L187.87 181.55L188.04 181.76L188.21 181.95L188.39 182.15L188.58 182.33L188.77 182.5L188.97 182.67L189.18 182.83L189.4 182.99L189.62 183.13L189.84 183.27L190.07 183.39L190.31 183.51L190.55 183.62L190.8 183.72L191.05 183.81L191.3 183.89L191.56 183.96L191.83 184.02L192.1 184.07L192.37 184.11L192.64 184.14L192.92 184.15L193.2 184.16L212 184.16L212.16 451.76L212.17 452.05L212.18 452.33L212.21 452.61L212.25 452.89L212.3 453.16L212.36 453.43L212.42 453.69L212.5 453.95L212.59 454.2L212.69 454.46L212.79 454.7L212.91 454.94L213.04 455.17L213.17 455.4L213.31 455.62L213.46 455.84L213.62 456.05L213.78 456.25L213.95 456.45L214.14 456.64L214.32 456.82L214.52 457L214.72 457.16L214.92 457.32L215.14 457.48L215.36 457.62L215.58 457.75L215.82 457.88L216.05 458L216.29 458.11L216.54 458.2L216.79 458.29L217.05 458.37L217.31 458.44L217.58 458.5L217.85 458.55L218.12 458.59L218.4 458.62L218.68 458.63L218.96 458.64L258.76 458.64L259.04 458.63L259.32 458.62L259.59 458.59L259.87 458.55L260.14 458.5L260.4 458.44L260.66 458.37L260.92 458.29L261.17 458.2L261.42 458.1L261.67 457.99L261.9 457.87L262.14 457.75L262.37 457.61L262.59 457.47L262.81 457.32L263.02 457.16L263.22 456.99L263.42 456.82L263.61 456.64L263.79 456.45L263.97 456.25L264.14 456.05L264.3 455.84L264.45 455.63L264.6 455.41L264.74 455.18L264.86 454.95L264.98 454.71L265.09 454.47L265.19 454.23L265.29 453.98L265.37 453.72L265.44 453.46L265.5 453.2L265.55 452.93L265.59 452.67L265.62 452.39L265.63 452.12L265.64 451.84L265.64 345.04L374.28 345.04L374.28 455.76L355.6 455.76L355.32 455.77L355.04 455.78L354.77 455.81L354.5 455.85L354.23 455.9L353.96 455.96L353.7 456.03L353.45 456.11L353.2 456.2L352.95 456.3L352.71 456.41L352.47 456.53L352.24 456.65L352.02 456.79L351.8 456.93L351.58 457.09L351.37 457.25L351.17 457.42L350.98 457.59L350.79 457.78L350.61 457.97L350.44 458.16L350.27 458.37L350.11 458.58L349.96 458.79L349.82 459.02L349.68 459.24L349.56 459.48L349.44 459.72L349.33 459.96L349.24 460.21L349.15 460.47L349.07 460.72L349 460.99L348.94 461.25L348.89 461.52L348.85 461.8L348.82 462.08L348.81 462.36L348.8 462.64L348.8 462.83L348.81 463.01L348.82 463.19L348.84 463.37L348.86 463.55L348.88 463.73L348.91 463.91L348.95 464.08L348.99 464.26L349.03 464.43L349.08 464.6L349.13 464.77L349.18 464.93L349.24 465.1L349.31 465.26L349.37 465.42L349.44 465.58L349.52 465.74L349.6 465.89L349.68 466.04L349.77 466.19L349.86 466.34L349.95 466.48L350.04 466.62L350.14 466.76L350.25 466.89L350.35 467.03L350.46 467.16L350.57 467.29L350.69 467.41L350.81 467.53L350.93 467.65L351.05 467.77L351.18 467.88L351.31 467.99L351.44 468.09L351.58 468.19L351.72 468.29L351.86 468.39L352 468.48L394.08 508.76L394.17 508.88L394.27 509L394.37 509.11L394.48 509.23L394.59 509.34L394.71 509.46L394.83 509.57L394.95 509.68L395.08 509.79L395.21 509.89L395.34 509.99L395.48 510.1L395.62 510.2L395.77 510.29L395.92 510.39L396.07 510.48L396.22 510.57L396.37 510.66L396.53 510.74L396.69 510.82L396.85 510.9L397.01 510.97L397.18 511.04L397.35 511.11L397.51 511.18L397.68 511.24L397.85 511.3L398.02 511.35L398.19 511.4L398.37 511.45L398.54 511.49L398.71 511.53L398.88 511.56L399.06 511.59L399.23 511.62L399.4 511.64L399.57 511.66L399.74 511.67L399.91 511.68L400.08 511.68L400.25 511.68L400.41 511.67L400.58 511.66L400.74 511.64L400.91 511.63L401.07 511.6L401.23 511.57L401.39 511.54L401.55 511.51L401.71 511.47L401.86 511.42L402.02 511.37L402.17 511.32L402.32 511.27L402.47 511.21L402.62 511.15L402.77 511.08L402.91 511.01L403.06 510.94L403.2 510.87L403.34 510.79L403.48 510.7L403.61 510.62L403.75 510.53L403.88 510.44L404.01 510.35L404.14 510.25L404.27 510.15L404.39 510.05L404.51 509.94L404.63 509.83L404.75 509.72L404.86 509.61L404.98 509.5L405.09 509.38L405.19 509.26L405.3 509.14L405.4 509.01L405.5 508.89L405.6 508.76L450.4 468.48L450.54 468.39L450.68 468.29L450.82 468.19L450.96 468.09L451.09 467.99L451.22 467.88L451.35 467.77L451.47 467.65L451.59 467.53L451.71 467.41L451.83 467.29L451.94 467.16L452.05 467.03L452.15 466.89L452.26 466.76L452.36 466.62L452.45 466.48L452.54 466.34L452.63 466.19L452.72 466.04L452.8 465.89L452.88 465.74L452.96 465.58L453.03 465.42L453.09 465.26L453.16 465.1L453.22 464.93L453.27 464.77L453.32 464.6L453.37 464.43L453.41 464.26L453.45 464.08L453.49 463.91L453.52 463.73L453.54 463.55L453.56 463.37L453.58 463.19L453.59 463.01L453.6 462.83L453.6 462.64L453.59 462.36L453.58 462.08L453.55 461.8L453.51 461.52L453.46 461.25L453.4 460.99L453.33 460.72L453.25 460.47L453.16 460.21L453.06 459.96L452.95 459.72L452.83 459.48L452.71 459.24L452.57 459.02L452.43 458.79L452.28 458.58L452.12 458.37L451.95 458.16L451.78 457.97L451.6 457.78L451.41 457.59L451.21 457.42L451.01 457.25L450.8 457.09L450.59 456.93L450.37 456.79L450.14 456.65L449.91 456.53L449.67 456.41L449.43 456.3L449.19 456.2L448.94 456.11L448.68 456.03L448.42 455.96L448.16 455.9L447.89 455.85L447.63 455.81L447.35 455.78L447.08 455.77L446.8 455.76L428 455.76L427.84 188.16L427.83 187.87L427.82 187.59L427.79 187.31L427.75 187.03L427.7 186.76L427.64 186.49L427.57 186.23L427.49 185.97L427.4 185.71L427.31 185.46L427.2 185.21L427.08 184.97L426.96 184.74L426.82 184.51L426.68 184.28L426.53 184.07L426.37 183.85L426.2 183.65L426.03 183.45L425.85 183.26L425.66 183.08L425.47 182.9L425.27 182.73L425.06 182.57L424.84 182.42L424.62 182.27L424.4 182.14L424.17 182.01L423.93 181.89L423.69 181.78L423.44 181.68L423.19 181.59L422.94 181.51L422.68 181.44L422.41 181.38L422.14 181.33L421.87 181.29L421.6 181.26L421.32 181.25L421.04 181.24L381.2 181.24L380.86 181.4L380.53 181.55L380.21 181.71L379.89 181.87L379.59 182.03L379.29 182.19L379 182.35L378.72 182.52L378.45 182.68L378.19 182.84L377.94 183.01L377.69 183.17L377.45 183.34L377.23 183.51L377.01 183.68L376.8 183.84L376.59 184.01L376.4 184.19L376.22 184.36L376.04 184.53L375.87 184.7L375.71 184.88L375.56 185.05L375.42 185.23L375.29 185.41L375.16 185.58L375.05 185.76L374.94 185.94L374.84 186.12L374.75 186.3L374.67 186.48L374.6 186.67L374.53 186.85L374.47 187.04L374.43 187.22L374.39 187.41L374.36 187.59L374.34 187.78L374.32 187.97L374.32 188.16L374.32 291.48L265.68 291.48L265.68 184.2L284.36 184.2L284.64 184.19L284.92 184.18L285.19 184.15L285.46 184.11L285.73 184.06L286 184L286.26 183.93L286.51 183.85L286.76 183.76L287.01 183.66L287.25 183.55L287.49 183.43L287.72 183.31L287.94 183.17L288.16 183.03L288.38 182.87L288.59 182.71L288.79 182.54L288.98 182.37L289.17 182.19L289.35 181.99L289.52 181.8L289.69 181.59L289.85 181.38L290 181.17L290.14 180.94L290.28 180.72L290.4 180.48L290.52 180.24L290.63 180L290.72 179.75L290.81 179.49L290.89 179.24L290.96 178.97L291.02 178.71L291.07 178.44L291.11 178.16L291.14 177.88L291.15 177.6L291.16 177.32L291.16 177.13L291.15 176.95L291.14 176.77L291.12 176.59L291.1 176.4L291.07 176.23L291.04 176.05L291.01 175.87L290.97 175.7L290.92 175.52L290.87 175.35L290.82 175.18L290.77 175.02L290.7 174.85L290.64 174.69L290.57 174.52L290.5 174.36L290.42 174.21L290.34 174.05L290.26 173.9L290.17 173.75L290.08 173.6L289.98 173.46L289.88 173.31L289.78 173.17L289.67 173.04L289.56 172.9L289.45 172.77L289.34 172.64L289.22 172.52L289.1 172.39L288.97 172.27L288.85 172.16L288.72 172.05L288.58 171.94L288.45 171.83L288.31 171.73L288.17 171.63L288.03 171.53L287.88 171.44L245.92 131.2L245.82 131.07L245.72 130.95L245.61 130.83L245.5 130.71L245.39 130.59L245.27 130.48L245.15 130.36L245.02 130.25L244.89 130.14L244.76 130.04L244.62 129.93L244.48 129.83L244.34 129.73L244.2 129.63L244.05 129.54L243.9 129.45L243.75 129.36L243.59 129.27L243.44 129.19L243.28 129.11L243.12 129.03L242.96 128.96L242.8 128.89L242.63 128.82L242.47 128.76L242.3 128.7L242.13 128.65L241.96 128.59L241.79 128.54L241.62 128.5L241.45 128.46L241.28 128.42L241.11 128.39L240.94 128.36L240.77 128.34L240.6 128.32L240.43 128.3L240.26 128.29L240.09 128.28L239.92 128.28L239.75 128.28L239.59 128.29Z" id="a33t1AMUzE"></path></defs><g><g><g><use xlink:href="#a33t1AMUzE" opacity="1" fill="#2f3c4f" fill-opacity="1"></use><g><use xlink:href="#a33t1AMUzE" opacity="1" fill-opacity="0" stroke="#000000" stroke-width="1" stroke-opacity="0"></use></g></g></g></g></svg>